<?xml version="1.0" encoding="UTF-8"?>
<svg id="Layer_1" xmlns="http://www.w3.org/2000/svg" version="1.1" viewBox="0 0 400 337.18">
  <path d="M283.14,337.18c-32.05,0-64.68-19.05-83.11-19.05h-.07c-18.43,0-51.06,19.05-83.11,19.05-33.79,0-63.22-31.18-12.13-108.26,0,0,37.96-67.16,95.66-65.82,57.71-1.33,94.88,65.82,94.88,65.82,51.1,77.08,21.66,108.26-12.13,108.26ZM376.67,93.11c-24.05-11.51-56.54,6.31-72.56,39.8-16.02,33.49-9.5,69.96,14.55,81.47,24.05,11.51,56.54-6.31,72.56-39.8,16.02-33.49,9.5-69.96-14.55-81.47ZM8.78,174.58c16.02,33.49,48.5,51.3,72.56,39.8,24.05-11.51,30.57-47.98,14.55-81.47-16.02-33.49-48.5-51.3-72.56-39.8C-.72,104.62-7.24,141.09,8.78,174.58ZM269.65.4c-27.15-4.23-54.37,25.73-60.79,66.91-6.42,41.19,10.39,78.01,37.54,82.24,27.15,4.23,54.37-25.73,60.79-66.91,6.42-41.19-10.39-78.01-37.54-82.24ZM92.81,82.64c6.42,41.19,33.64,71.15,60.79,66.91,27.15-4.23,43.96-41.06,37.54-82.24C184.72,26.12,157.5-3.83,130.35.4c-27.15,4.23-43.96,41.06-37.54,82.24Z" style="fill: #fff;"/>
</svg>